<svg xmlns="http://www.w3.org/2000/svg" viewBox="0 0 64 64"><g id="_02-Silver_Medal" data-name="02-Silver Medal"><rect x="30" y="19" width="4" height="7" style="fill:#cdd2e1"/><rect x="32" y="19" width="2" height="7" style="fill:#afb4c8"/><circle cx="32" cy="43" r="14" style="fill:#cdd2e1"/><circle cx="32" cy="43" r="10" style="fill:#e9edf5"/><path d="M51.99,39.53c.19,1.07-1.63,2.34-1.63,3.47s1.82,2.4,1.63,3.47c-.2,1.11-2.35,1.69-2.73,2.72-.39,1.05.87,2.86.32,3.81-.57.96-2.79.78-3.52,1.63s-.15,2.98-1.02,3.69c-.85.71-2.88-.2-3.86.35s-1.17,2.75-2.24,3.13c-1.04.37-2.63-1.17-3.75-.98C34.1,61.01,33.15,63,32,63s-2.1-1.99-3.19-2.18c-1.12-.19-2.71,1.35-3.75.98-1.07-.38-1.27-2.57-2.24-3.13s-3,.36-3.86-.35-.3-2.84-1.02-3.69-2.95-.66-3.51-1.63c-.56-.95.7-2.76.31-3.81-.38-1.03-2.53-1.61-2.73-2.72-.19-1.07,1.63-2.34,1.63-3.47s-1.82-2.4-1.63-3.47c.2-1.11,2.35-1.69,2.73-2.72.39-1.05-.87-2.86-.32-3.81.57-.96,2.79-.78,3.52-1.63s.15-2.98,1.02-3.69c.85-.71,2.88.2,3.86-.35s1.17-2.75,2.24-3.13c1.04-.37,2.63,1.17,3.75.98C29.9,24.99,30.85,23,32,23s2.1,1.99,3.19,2.18c1.12.19,2.71-1.35,3.75-.98,1.07.38,1.27,2.57,2.24,3.13s3-.36,3.86.35.3,2.84,1.02,3.69,2.95.66,3.51,1.63c.56.95-.7,2.76-.31,3.81C49.64,37.84,51.79,38.42,51.99,39.53ZM46,43A14,14,0,1,0,32,57,14,14,0,0,0,46,43Z" style="fill:#e9edf5"/><polygon points="46 15 46 19 18 19 18 15 20 15 28 15 37 15 45 15 46 15" style="fill:#19cffc"/><polygon points="46 17 46 19 18 19 18 17 20 17 28 17 37 17 45 17 46 17" style="fill:#4ab8f7"/><rect x="20" y="1" width="8" height="14" style="fill:#4ab8f7"/><rect x="37" y="1" width="8" height="14" style="fill:#4ab8f7"/><rect x="28" y="1" width="9" height="14" style="fill:#b5efff"/><path d="M39.639,49.446a9.995,9.995,0,1,1-13.4-14.614A18.1,18.1,0,0,1,26,32c0-.565.034-1.123.085-1.675A13.991,13.991,0,1,0,44.114,49.994c-.038,0-.075.006-.114.006A18.011,18.011,0,0,1,39.639,49.446Z" style="fill:#bec3d2"/><path d="M22,43a10,10,0,0,0,17.639,6.446,17.991,17.991,0,0,1-13.4-14.614A9.982,9.982,0,0,0,22,43Z" style="fill:#dce1eb"/><path d="M44.114,49.994A13.991,13.991,0,1,1,26.085,30.325a17.858,17.858,0,0,1,1.384-5.444c-.85-.373-1.742-.918-2.409-.681-1.07.38-1.27,2.57-2.24,3.13s-3.01-.36-3.86.35c-.87.71-.3,2.84-1.02,3.69s-2.95.67-3.52,1.63c-.55.95.71,2.76.32,3.81-.38,1.03-2.53,1.61-2.73,2.72-.19,1.07,1.63,2.34,1.63,3.47s-1.82,2.4-1.63,3.47c.2,1.11,2.35,1.69,2.73,2.72.39,1.05-.87,2.86-.31,3.81.56.97,2.78.79,3.51,1.63s.16,2.98,1.02,3.69,2.88-.2,3.86.35,1.17,2.75,2.24,3.13c1.04.37,2.63-1.17,3.75-.98C29.9,61.01,30.86,63,32,63s2.1-1.99,3.19-2.18c1.12-.19,2.71,1.35,3.75.98,1.07-.38,1.27-2.57,2.24-3.13s3.01.36,3.86-.35c.87-.71.3-2.84,1.02-3.69s2.95-.67,3.52-1.63c.546-.943-.687-2.731-.325-3.784A17.985,17.985,0,0,1,44.114,49.994Z" style="fill:#cdd2e1"/><path d="M24,6V1H20V15h8V10h0A4,4,0,0,1,24,6Z" style="fill:#1ea1e3"/><rect x="37" y="10" width="8" height="5" style="fill:#1ea1e3"/><rect x="28" y="10" width="9" height="5" style="fill:#80dbff"/><rect x="15" y="16" width="3" height="2" style="fill:#afb4c8"/><path d="M23.688,39.54l-1.845-.769a10.832,10.832,0,0,0-.629,2.062l1.961.391A8.965,8.965,0,0,1,23.688,39.54Z" style="fill:#afb4c8"/><path d="M23,43v-.021L21,43a11.058,11.058,0,0,0,.2,2.121l1.962-.384A9.074,9.074,0,0,1,23,43Z" style="fill:#afb4c8"/><path d="M25.646,36.626,24.234,35.21a11,11,0,0,0-1.37,1.662l1.66,1.115A9.07,9.07,0,0,1,25.646,36.626Z" style="fill:#afb4c8"/><path d="M24.2,50.757a10.951,10.951,0,0,0,1.661,1.372l1.116-1.659a9,9,0,0,1-1.359-1.123Z" style="fill:#afb4c8"/><path d="M23.674,46.425l-1.849.762a11.018,11.018,0,0,0,1.013,1.9L24.5,47.98A8.981,8.981,0,0,1,23.674,46.425Z" style="fill:#afb4c8"/><path d="M32,34h.011V32.915l.113-.907A.852.852,0,0,0,32,32a11.088,11.088,0,0,0-2.133.207l.387,1.962A9.073,9.073,0,0,1,32,34Z" style="fill:#afb4c8"/><path d="M39.487,38a9.014,9.014,0,0,1,.832,1.555l1.848-.766a11.057,11.057,0,0,0-1.017-1.9Z" style="fill:#afb4c8"/><path d="M39.783,35.226a11.114,11.114,0,0,0-1.664-1.369l-1.114,1.662a9.012,9.012,0,0,1,1.363,1.12Z" style="fill:#afb4c8"/><path d="M36.218,32.838a10.9,10.9,0,0,0-2.064-.627l-.388,1.962a8.854,8.854,0,0,1,1.685.512Z" style="fill:#afb4c8"/><path d="M38.34,49.387l1.41,1.42a11.006,11.006,0,0,0,1.373-1.661l-1.658-1.117A9.006,9.006,0,0,1,38.34,49.387Z" style="fill:#afb4c8"/><path d="M27.8,32.829a10.991,10.991,0,0,0-1.9,1.015l1.11,1.664a8.941,8.941,0,0,1,1.556-.83Z" style="fill:#afb4c8"/><path d="M40.829,41.244A9.129,9.129,0,0,1,41,43v.042L43,43a11.075,11.075,0,0,0-.209-2.144Z" style="fill:#afb4c8"/><path d="M35.417,51.329l.758,1.851a11,11,0,0,0,1.905-1.012L36.974,50.5A8.9,8.9,0,0,1,35.417,51.329Z" style="fill:#afb4c8"/><path d="M40.3,46.478l1.844.773a10.976,10.976,0,0,0,.634-2.062l-1.961-.4A8.909,8.909,0,0,1,40.3,46.478Z" style="fill:#afb4c8"/><path d="M27.76,53.153a10.888,10.888,0,0,0,2.062.631l.394-1.961a8.936,8.936,0,0,1-1.685-.515Z" style="fill:#afb4c8"/><path d="M32,52h-.032L32,54a11.084,11.084,0,0,0,2.109-.2l-.381-1.963A9.133,9.133,0,0,1,32,52Z" style="fill:#afb4c8"/><rect x="23" y="3" width="2" height="2" style="fill:#b5efff"/><rect x="23" y="7" width="2" height="2" style="fill:#b5efff"/><rect x="23" y="11" width="2" height="2" style="fill:#b5efff"/><rect x="40" y="3" width="2" height="2" style="fill:#b5efff"/><rect x="40" y="7" width="2" height="2" style="fill:#b5efff"/><rect x="40" y="11" width="2" height="2" style="fill:#b5efff"/><rect x="46" y="16" width="3" height="2" style="fill:#afb4c8"/><path d="M35,48H30a1,1,0,0,1-.707-.293l-1-1A1,1,0,0,1,28,46V44a1,1,0,0,1,.293-.707l1-1A1,1,0,0,1,30,42h3.586L34,41.586V40.414L33.586,40H28V39a1,1,0,0,1,1-1h5a1,1,0,0,1,.707.293l1,1A1,1,0,0,1,36,40v2a1,1,0,0,1-.293.707l-1,1A1,1,0,0,1,34,44H30.414L30,44.414v1.172l.414.414H36v1A1,1,0,0,1,35,48Z" style="fill:#afb4c8"/><path d="M51.358,43A3.534,3.534,0,0,1,52,41.907a3.458,3.458,0,0,0,.972-2.555,3.538,3.538,0,0,0-1.826-2.112,3.652,3.652,0,0,1-.95-.778,3.546,3.546,0,0,1,.22-1.221,3.469,3.469,0,0,0,.023-2.75,3.57,3.57,0,0,0-2.428-1.35,3.683,3.683,0,0,1-1.184-.421,3.5,3.5,0,0,1-.214-1.213,3.49,3.49,0,0,0-.93-2.6,3.577,3.577,0,0,0-2.732-.45,3.688,3.688,0,0,1-1.274,0,3.542,3.542,0,0,1-.619-1.065,3.533,3.533,0,0,0-1.777-2.132,3.572,3.572,0,0,0-2.705.5,3.479,3.479,0,0,1-1.214.431,1.051,1.051,0,0,1-.36-.234V20H46a1,1,0,0,0,1-1V18h2V16H47V15a1,1,0,0,0-1-1V1a1,1,0,0,0-1-1H20a1,1,0,0,0-1,1V14H18a1,1,0,0,0-1,1v1H15v2h2v1a1,1,0,0,0,1,1H29v3.957a1.062,1.062,0,0,1-.361.234,3.479,3.479,0,0,1-1.215-.43,3.562,3.562,0,0,0-2.7-.5,3.535,3.535,0,0,0-1.777,2.133,3.555,3.555,0,0,1-.619,1.065,3.644,3.644,0,0,1-1.275,0,3.584,3.584,0,0,0-2.731.449,3.493,3.493,0,0,0-.93,2.6,3.492,3.492,0,0,1-.214,1.212,3.659,3.659,0,0,1-1.183.422,3.567,3.567,0,0,0-2.429,1.351,3.462,3.462,0,0,0,.024,2.749,3.542,3.542,0,0,1,.22,1.221,3.66,3.66,0,0,1-.951.778,3.54,3.54,0,0,0-1.825,2.112A3.456,3.456,0,0,0,12,41.907,3.534,3.534,0,0,1,12.642,43,3.534,3.534,0,0,1,12,44.093a3.458,3.458,0,0,0-.972,2.555,3.538,3.538,0,0,0,1.826,2.112,3.652,3.652,0,0,1,.95.778,3.546,3.546,0,0,1-.22,1.221,3.469,3.469,0,0,0-.023,2.75,3.57,3.57,0,0,0,2.428,1.35,3.683,3.683,0,0,1,1.184.421,3.5,3.5,0,0,1,.214,1.213,3.49,3.49,0,0,0,.93,2.6,3.589,3.589,0,0,0,2.732.45,3.616,3.616,0,0,1,1.274,0,3.542,3.542,0,0,1,.619,1.065,3.533,3.533,0,0,0,1.777,2.132,3.557,3.557,0,0,0,2.7-.5,3.557,3.557,0,0,1,1.214-.431,3.6,3.6,0,0,1,.943.785A3.591,3.591,0,0,0,32,64a3.591,3.591,0,0,0,2.417-1.406,3.6,3.6,0,0,1,.944-.785,3.492,3.492,0,0,1,1.215.43,3.551,3.551,0,0,0,2.7.5,3.535,3.535,0,0,0,1.777-2.133,3.555,3.555,0,0,1,.619-1.065,3.7,3.7,0,0,1,1.275,0,3.579,3.579,0,0,0,2.731-.449,3.493,3.493,0,0,0,.93-2.6,3.492,3.492,0,0,1,.214-1.212,3.659,3.659,0,0,1,1.183-.422,3.563,3.563,0,0,0,2.428-1.351,3.458,3.458,0,0,0-.023-2.749,3.542,3.542,0,0,1-.22-1.221,3.66,3.66,0,0,1,.951-.778,3.54,3.54,0,0,0,1.825-2.112A3.456,3.456,0,0,0,52,44.093,3.534,3.534,0,0,1,51.358,43ZM44,14H38V2h6ZM29,14V2h7V14ZM21,2h6V14H21ZM19,16H45v2H19Zm14,4v2.252a2.11,2.11,0,0,0-2,0V20ZM50.027,47.1a4.027,4.027,0,0,0-1.709,1.743,4.016,4.016,0,0,0,.171,2.459,3.856,3.856,0,0,1,.227,1.188,3.679,3.679,0,0,1-1.194.427A4.1,4.1,0,0,0,45.3,53.982a4,4,0,0,0-.685,2.356,3.677,3.677,0,0,1-.208,1.209,3.676,3.676,0,0,1-1.267,0,4.127,4.127,0,0,0-2.457.256,4.015,4.015,0,0,0-1.447,1.969,3.549,3.549,0,0,1-.63,1.081,3.7,3.7,0,0,1-1.178-.423,4.12,4.12,0,0,0-2.41-.594A4.029,4.029,0,0,0,33,61.186c-.261.262-.8.807-1,.814s-.737-.552-1-.814a4.029,4.029,0,0,0-2.023-1.348,2.142,2.142,0,0,0-.373-.031,4.945,4.945,0,0,0-2.037.625,3.642,3.642,0,0,1-1.172.426,3.438,3.438,0,0,1-.635-1.083,4.022,4.022,0,0,0-1.447-1.969,4.148,4.148,0,0,0-2.458-.256,3.761,3.761,0,0,1-1.26,0,3.547,3.547,0,0,1-.215-1.215,3.993,3.993,0,0,0-.685-2.356,4.1,4.1,0,0,0-2.219-1.064,3.871,3.871,0,0,1-1.187-.415,3.6,3.6,0,0,1,.219-1.2,4.016,4.016,0,0,0,.171-2.459A4.016,4.016,0,0,0,13.973,47.1a3.924,3.924,0,0,1-.973-.79,3.624,3.624,0,0,1,.62-1.041A4.06,4.06,0,0,0,14.642,43a4.054,4.054,0,0,0-1.022-2.27A3.905,3.905,0,0,1,13,39.707c.06-.191.655-.592.975-.808a4.027,4.027,0,0,0,1.709-1.743,4.016,4.016,0,0,0-.171-2.459,3.856,3.856,0,0,1-.227-1.188,3.679,3.679,0,0,1,1.194-.427A4.1,4.1,0,0,0,18.7,32.018a4,4,0,0,0,.685-2.356,3.677,3.677,0,0,1,.208-1.209,3.626,3.626,0,0,1,1.267,0,4.145,4.145,0,0,0,2.457-.256,4.015,4.015,0,0,0,1.447-1.969,3.549,3.549,0,0,1,.63-1.081,3.48,3.48,0,0,1,1.178.423,4.146,4.146,0,0,0,2.41.594A4.029,4.029,0,0,0,31,24.814c.261-.262.8-.807,1-.814s.737.552,1,.814a4.029,4.029,0,0,0,2.023,1.348,4.165,4.165,0,0,0,2.41-.594,3.767,3.767,0,0,1,1.172-.426,3.438,3.438,0,0,1,.635,1.083,4.022,4.022,0,0,0,1.447,1.969,4.119,4.119,0,0,0,2.458.256,3.761,3.761,0,0,1,1.26,0,3.547,3.547,0,0,1,.215,1.215,3.993,3.993,0,0,0,.685,2.356,4.1,4.1,0,0,0,2.219,1.064,3.871,3.871,0,0,1,1.187.415,3.6,3.6,0,0,1-.219,1.2,4.016,4.016,0,0,0-.171,2.459A4.016,4.016,0,0,0,50.027,38.9a3.924,3.924,0,0,1,.973.79,3.624,3.624,0,0,1-.62,1.041A4.06,4.06,0,0,0,49.358,43a4.054,4.054,0,0,0,1.022,2.27A3.905,3.905,0,0,1,51,46.293C50.942,46.484,50.347,46.885,50.027,47.1Z"/><path d="M32,28A15,15,0,1,0,47,43,15.017,15.017,0,0,0,32,28Zm0,28A13,13,0,1,1,45,43,13.015,13.015,0,0,1,32,56Z"/><path d="M36.218,32.838a10.9,10.9,0,0,0-2.064-.627l-.388,1.962a8.854,8.854,0,0,1,1.685.512Z"/><path d="M38.34,49.387l1.41,1.42a11.006,11.006,0,0,0,1.373-1.661l-1.658-1.117A9.006,9.006,0,0,1,38.34,49.387Z"/><path d="M39.783,35.226a11.114,11.114,0,0,0-1.664-1.369l-1.114,1.662a9.012,9.012,0,0,1,1.363,1.12Z"/><path d="M25.646,36.626,24.234,35.21a11,11,0,0,0-1.37,1.662l1.66,1.115A9.07,9.07,0,0,1,25.646,36.626Z"/><path d="M32,34h.011V32.915l.113-.907A.852.852,0,0,0,32,32a11.088,11.088,0,0,0-2.133.207l.387,1.962A9.073,9.073,0,0,1,32,34Z"/><path d="M35.417,51.329l.758,1.851a11,11,0,0,0,1.905-1.012L36.974,50.5A8.9,8.9,0,0,1,35.417,51.329Z"/><path d="M41,43v.042L43,43a11.075,11.075,0,0,0-.209-2.144l-1.962.388A9.129,9.129,0,0,1,41,43Z"/><path d="M40.3,46.478l1.844.773a10.976,10.976,0,0,0,.634-2.062l-1.961-.4A8.909,8.909,0,0,1,40.3,46.478Z"/><path d="M39.487,38a9.014,9.014,0,0,1,.832,1.555l1.848-.766a11.057,11.057,0,0,0-1.017-1.9Z"/><path d="M27.76,53.153a10.888,10.888,0,0,0,2.062.631l.394-1.961a8.936,8.936,0,0,1-1.685-.515Z"/><path d="M32,52h-.032L32,54a11.084,11.084,0,0,0,2.109-.2l-.381-1.963A9.133,9.133,0,0,1,32,52Z"/><path d="M27.8,32.829a10.991,10.991,0,0,0-1.9,1.015l1.11,1.664a8.941,8.941,0,0,1,1.556-.83Z"/><path d="M23.674,46.425l-1.849.762a11.018,11.018,0,0,0,1.013,1.9L24.5,47.98A8.981,8.981,0,0,1,23.674,46.425Z"/><path d="M24.2,50.757a10.951,10.951,0,0,0,1.661,1.372l1.116-1.659a9,9,0,0,1-1.359-1.123Z"/><path d="M23,43v-.021L21,43a11.058,11.058,0,0,0,.2,2.121l1.962-.384A9.074,9.074,0,0,1,23,43Z"/><path d="M23.688,39.54l-1.845-.769a10.832,10.832,0,0,0-.629,2.062l1.961.391A8.965,8.965,0,0,1,23.688,39.54Z"/><rect x="23" y="3" width="2" height="2"/><rect x="23" y="7" width="2" height="2"/><rect x="23" y="11" width="2" height="2"/><rect x="40" y="3" width="2" height="2"/><rect x="40" y="7" width="2" height="2"/><rect x="40" y="11" width="2" height="2"/><path d="M36,47V46H30.414L30,45.586V44.414L30.414,44H34a1,1,0,0,0,.707-.293l1-1A1,1,0,0,0,36,42V40a1,1,0,0,0-.293-.707l-1-1A1,1,0,0,0,34,38H29a1,1,0,0,0-1,1v1h5.586l.414.414v1.172L33.586,42H30a1,1,0,0,0-.707.293l-1,1A1,1,0,0,0,28,44v2a1,1,0,0,0,.293.707l1,1A1,1,0,0,0,30,48h5A1,1,0,0,0,36,47Z"/></g></svg>