<svg version="1.1" id="Layer_1" xmlns="http://www.w3.org/2000/svg" xmlns:xlink="http://www.w3.org/1999/xlink" x="0px" y="0px"
	 width="100%" viewBox="0 0 1024 1024" enable-background="new 0 0 1024 1024" xml:space="preserve">
<path fill="#000000" opacity="1.000000" stroke="none" 
	d="
M212.661865,555.119141 
	C211.377426,543.688416 211.676819,532.693481 211.648041,521.708374 
	C211.599564,503.193512 216.079819,485.843536 225.014801,469.634399 
	C225.576935,468.614594 226.118500,467.578888 226.586258,466.513947 
	C226.775070,466.084106 226.739624,465.555786 226.834183,464.869476 
	C224.451447,463.635406 222.702545,465.152039 220.946304,466.189819 
	C206.435745,474.764465 199.691940,488.612671 195.317841,504.060211 
	C192.136612,515.294983 191.671555,526.997498 189.387085,538.385559 
	C188.302002,543.794678 186.656006,549.036560 183.983047,553.878174 
	C182.995850,555.666260 182.268250,557.946106 179.058884,558.270264 
	C181.554626,543.445740 182.425201,528.745789 181.168228,513.973389 
	C178.140564,513.875427 178.594894,515.689575 178.335388,517.068726 
	C175.973022,529.624329 174.896835,542.412415 171.382278,554.761353 
	C162.175034,587.112183 140.142593,605.040588 104.480186,606.346008 
	C90.902870,606.843079 77.992630,604.313110 66.206764,597.238403 
	C64.731560,596.352905 62.701973,595.912170 62.343666,593.285339 
	C68.602837,591.378479 75.595726,594.404968 82.010231,590.591919 
	C80.118202,588.463928 77.776436,588.657288 75.637825,588.405579 
	C54.287674,585.892883 37.607990,571.169067 32.436592,550.230652 
	C32.246758,549.462097 32.173027,548.664856 31.803858,546.401062 
	C42.536957,554.561829 53.188652,560.643555 65.658081,561.489197 
	C78.369278,562.351257 89.829552,558.337036 100.198235,550.186890 
	C97.960449,547.897888 95.776932,548.502258 93.487869,548.905518 
	C77.932648,551.645874 57.235577,538.255249 53.026581,522.753601 
	C54.433796,521.645020 55.505692,522.834717 56.561737,523.392700 
	C79.583000,535.554993 103.224396,530.022095 119.014511,509.248901 
	C128.501266,496.768311 136.280426,483.156677 145.704636,470.631653 
	C160.957291,450.360504 180.892410,439.578583 206.201355,437.395172 
	C219.135544,436.279327 231.755569,437.679474 244.474747,438.834839 
	C247.031403,439.067078 248.848221,438.630981 250.815186,437.055420 
	C265.604553,425.209229 281.600616,415.501068 299.602295,409.203339 
	C317.599915,402.907043 335.829712,400.339722 354.977905,402.345276 
	C370.507141,403.971741 386.037872,405.235474 401.338470,408.491730 
	C402.938477,408.832245 404.659668,408.619415 406.324890,408.634216 
	C410.093201,408.667725 411.640717,406.898956 411.514771,403.041138 
	C411.277161,395.760986 411.783997,395.297180 419.045837,395.634338 
	C429.333160,396.112030 438.725800,400.311127 448.421173,403.142670 
	C462.381409,407.219666 476.383789,410.539642 491.069763,409.652008 
	C492.066864,409.591736 493.079437,409.688232 494.065369,409.561035 
	C496.607513,409.232971 498.576569,407.967926 498.992401,405.339325 
	C499.417816,402.650055 496.881104,402.186920 495.212494,401.379272 
	C480.672089,394.341370 466.020508,387.525513 451.958069,379.544006 
	C442.971680,374.443542 434.112488,369.142029 426.213379,362.405060 
	C407.171722,346.164886 402.748840,325.937012 413.260895,303.212006 
	C416.711517,295.752411 421.381683,289.068848 426.404999,282.617279 
	C427.545654,281.152344 428.651001,279.777466 428.656403,277.764862 
	C428.685638,266.910431 433.663330,258.125397 441.009857,250.777618 
	C461.074829,230.709274 482.210236,211.873077 507.003479,197.691544 
	C531.701843,183.564285 558.345520,179.040787 586.445496,182.494583 
	C590.514526,182.994705 593.010254,182.091629 592.670593,177.359039 
	C592.455383,174.360321 592.766418,171.393387 593.605591,168.470978 
	C594.152283,166.566895 594.195618,164.972244 592.650757,163.017731 
	C590.481079,160.272751 591.366272,156.601486 592.184082,153.427353 
	C598.544434,128.739410 619.562012,114.397583 644.995544,115.215233 
	C665.526367,115.875275 686.504272,129.836517 692.112183,156.522766 
	C693.096497,161.206696 695.263855,163.234482 699.907349,163.841812 
	C703.826355,164.354401 707.680420,165.659286 711.449768,166.945892 
	C716.117615,168.539169 716.571350,171.034332 712.577942,173.898895 
	C705.755005,178.793106 697.755188,180.422516 689.590942,181.358795 
	C687.963989,181.545395 686.243835,181.149963 684.434570,182.399139 
	C684.061707,188.411926 685.893738,194.344467 686.839722,200.339661 
	C688.071106,208.143509 687.837036,209.160294 680.804749,212.180008 
	C678.834534,213.026077 677.168213,214.092697 676.754517,216.223953 
	C675.128906,224.599274 668.821106,230.397064 664.991333,237.555862 
	C663.287842,240.740356 659.659424,241.504120 655.732056,240.770309 
	C650.892456,239.866028 646.512939,238.023483 642.215759,235.793533 
	C639.854065,234.567993 637.488586,233.339478 635.062012,232.252335 
	C632.881042,231.275208 630.460571,230.559418 628.515747,232.474701 
	C626.621948,234.339645 627.037231,236.858170 627.916382,239.047333 
	C632.241943,249.817917 631.549011,260.680603 629.689636,271.888794 
	C627.868408,282.866821 627.819214,294.018463 630.305603,305.064240 
	C631.560425,310.638977 634.209045,314.819458 639.440247,317.363861 
	C647.803223,321.431549 656.763794,323.396820 665.866028,325.526276 
	C662.918213,318.571472 657.225464,313.525299 654.875000,305.471100 
	C667.402771,308.931732 678.779907,307.711884 690.764404,301.132202 
	C684.718384,297.605316 678.677307,296.894745 674.346130,292.838409 
	C670.020752,288.787567 666.506958,284.448242 665.657837,278.664856 
	C667.007812,277.390686 668.024841,277.638336 668.864380,278.179657 
	C677.213135,283.562988 686.126892,283.389893 695.268555,280.911804 
	C699.439026,279.781250 703.658386,278.761505 707.719360,277.310486 
	C716.263306,274.257660 725.106018,273.107910 734.225098,272.222046 
	C725.463196,265.061798 713.772522,269.783722 703.037170,265.142059 
	C726.741638,251.976212 750.110535,243.787308 776.773193,250.844833 
	C769.807007,243.429352 758.374329,243.898010 752.451172,235.483459 
	C753.433289,234.565369 753.679810,234.142731 753.901184,234.155502 
	C767.645935,234.948349 780.661499,229.251389 794.364380,229.627075 
	C798.432617,229.738617 802.272766,230.577423 805.914429,232.344452 
	C810.478394,234.559006 813.965698,237.681717 814.653687,243.061005 
	C816.281372,255.787430 822.081116,267.147430 826.400330,278.993011 
	C827.913025,283.141602 830.129517,287.089783 826.312927,291.487274 
	C824.526001,293.546234 826.611023,295.496277 828.862854,295.431732 
	C831.790710,295.347778 832.925110,296.684387 833.902832,299.114471 
	C846.189209,329.652344 864.739685,356.559631 883.053040,383.596954 
	C884.243286,385.354248 885.594604,387.075104 887.733948,388.224945 
	C890.764771,386.104034 891.631348,384.024872 889.319763,380.444885 
	C876.495178,360.583374 863.024231,341.103729 852.117188,320.071228 
	C848.058899,312.245483 844.614746,304.103271 840.771240,296.163116 
	C839.301453,293.126709 839.891235,291.344910 843.049438,289.900330 
	C857.946777,283.086029 873.357971,277.937561 889.474182,274.910400 
	C893.767761,274.103912 897.325989,274.940460 900.160461,278.481903 
	C904.113953,283.421509 908.278748,288.126190 913.345276,292.050659 
	C916.882996,294.791016 918.602356,298.954010 919.252502,303.321198 
	C920.177063,309.532532 922.365051,315.226562 925.648560,320.498566 
	C931.255615,329.501495 935.027100,339.603973 942.905884,348.336884 
	C936.402588,351.189514 930.435059,353.957886 924.960693,357.603119 
	C916.475464,363.253296 908.607483,369.650421 901.377197,376.824829 
	C899.507996,378.679657 897.681580,380.688904 898.848083,383.972290 
	C904.347168,382.243683 908.794678,379.105530 913.102051,375.692200 
	C921.985901,368.651978 930.998474,361.840149 941.432190,357.112152 
	C946.146729,354.975769 949.113220,355.382202 952.052979,360.262146 
	C958.205017,370.474487 966.770386,378.694489 975.690613,386.545044 
	C983.804382,393.685944 984.703979,400.970917 978.408691,409.807678 
	C975.619141,413.723450 974.013062,417.817139 973.158020,422.512268 
	C971.219910,433.155151 960.355835,441.133026 949.429077,440.341431 
	C945.896912,440.085571 943.217712,438.078735 940.650330,435.950195 
	C938.479309,434.150299 936.466492,432.159637 933.612305,429.547394 
	C935.925110,435.735291 940.345581,438.673157 944.678467,441.720337 
	C936.931458,447.508911 921.019043,447.197662 915.192932,443.202057 
	C912.950867,441.664368 912.083984,439.357727 911.688110,436.834381 
	C910.358154,428.357208 906.326172,422.761749 897.031433,421.943420 
	C891.647583,421.469452 887.425171,418.440033 884.054871,414.255615 
	C882.799683,412.697266 881.698853,411.166656 879.146484,411.725250 
	C856.206726,416.745636 832.910461,416.823059 809.613892,416.269592 
	C804.487610,416.147827 801.944031,417.845215 799.807678,422.476532 
	C788.578857,446.819275 777.841675,471.345032 768.127808,496.350372 
	C762.948608,509.682495 762.318115,522.935059 765.633484,536.404358 
	C772.393677,563.869080 762.672729,586.354126 745.311890,606.692871 
	C742.529480,609.952576 740.164429,613.669312 735.958313,616.399719 
	C720.075989,602.187256 703.154724,589.234009 684.347839,577.860352 
	C683.998718,581.272522 685.961426,582.468201 687.359192,583.998840 
	C697.083740,594.648132 708.776978,602.990967 720.033875,611.834717 
	C739.678711,627.268250 759.396973,642.608276 779.081177,657.991760 
	C786.987488,664.170654 795.370911,669.616455 804.559326,673.662048 
	C818.870728,679.963318 828.455200,691.299377 833.732666,705.139587 
	C841.614929,725.810913 853.601685,743.909546 865.504517,762.151428 
	C871.218750,770.908936 876.786133,779.852295 884.364197,787.271606 
	C886.637512,789.497314 888.059692,792.429138 888.986450,795.482971 
	C893.697266,811.006531 903.871582,823.228210 913.341614,835.869629 
	C914.432861,837.326355 915.890686,838.505615 916.497375,840.307861 
	C920.222717,851.373840 925.506592,861.780396 930.088501,872.484436 
	C932.137634,877.271545 931.462036,878.529114 926.108582,879.522705 
	C919.050476,880.832520 912.235168,878.830322 905.503052,877.244690 
	C894.138428,874.567871 882.915039,871.344482 873.875061,863.297668 
	C868.935730,858.900818 866.174011,853.475342 865.482544,846.829895 
	C865.035706,842.535156 866.141846,839.070557 868.907593,835.807556 
	C875.415222,828.130188 871.998291,817.829712 862.187866,815.347656 
	C855.554565,813.669373 850.376770,809.974426 848.787964,803.263672 
	C843.802490,782.205994 832.193726,764.540161 820.740234,746.749084 
	C819.118042,744.229431 817.556274,741.666077 816.077209,739.060242 
	C813.087646,733.793457 808.792908,730.063599 803.259644,727.640076 
	C799.284851,725.899170 795.264648,724.049194 792.368469,720.722900 
	C781.317261,708.030090 767.247375,700.040710 751.658264,694.481018 
	C727.534546,685.877441 703.349304,677.446350 679.191956,668.936951 
	C672.736328,666.663025 665.987366,665.667725 659.295593,664.487793 
	C648.566833,662.596008 640.879517,656.537354 635.021973,647.646851 
	C625.695801,633.491760 620.285828,617.460022 613.131653,602.266174 
	C609.148376,593.806824 604.655029,585.654785 599.394470,577.934692 
	C597.433472,575.057007 595.315186,572.263550 591.753601,570.622742 
	C606.693420,595.952271 615.115173,624.274475 629.666382,650.249329 
	C623.950073,653.613770 617.938049,654.233032 612.188843,655.136353 
	C599.309631,657.159973 586.324707,656.894714 573.372009,655.521606 
	C569.165588,655.075623 564.999573,655.318481 561.074707,656.835876 
	C553.940979,659.593811 546.505310,659.115356 540.125427,656.130737 
	C528.968140,650.911255 517.037476,648.937500 505.371246,645.933716 
	C465.466003,635.659485 428.532227,619.048889 394.544220,595.719482 
	C385.102539,589.238647 375.406067,582.899536 363.700897,580.971130 
	C356.916809,579.853394 350.117310,579.987976 343.343811,580.952454 
	C341.200287,581.257629 339.154266,581.539551 336.240692,580.864075 
	C344.331940,559.809448 344.550262,538.435913 342.273804,516.827209 
	C338.143768,526.182617 338.092255,536.279602 336.500214,546.050842 
	C334.892181,555.920349 332.491760,565.546326 329.751862,575.134583 
	C326.984100,584.820496 320.347809,593.108032 318.928040,604.477661 
	C322.271240,602.506409 324.602417,600.759521 325.824005,598.373657 
	C330.903748,588.453125 340.276154,586.811157 349.809814,585.724609 
	C357.551086,584.842346 365.091858,586.334778 372.209625,589.492676 
	C387.020081,596.063416 401.009857,604.094116 414.183167,613.533813 
	C414.693481,613.899475 415.063660,614.460571 415.980408,615.450134 
	C401.115387,622.835815 396.909821,638.488525 387.878967,650.335876 
	C372.622437,670.350586 354.678711,687.641479 335.818420,704.095581 
	C322.858856,715.401794 310.173340,726.875244 301.772766,742.302246 
	C296.287415,752.375793 294.169403,762.479980 297.341034,773.882996 
	C304.258423,798.753174 311.495514,823.484985 323.291840,846.574280 
	C330.043793,859.790100 339.962158,869.773376 354.325165,874.720947 
	C356.429535,875.445862 358.076263,876.707336 359.549438,878.401184 
	C366.537109,886.436218 370.706909,896.124878 375.408661,905.474182 
	C377.284729,909.204834 375.796600,911.752319 371.712128,912.213013 
	C355.925018,913.993530 340.203613,913.347900 324.534729,910.669006 
	C319.338196,909.780518 317.739197,906.583008 317.646118,901.887207 
	C317.582092,898.658020 318.503662,895.645752 319.423676,892.626099 
	C321.416840,886.084412 318.649536,881.936340 311.889130,881.387939 
	C298.806610,880.326660 293.631653,876.255310 290.865540,863.761536 
	C284.695007,835.891602 275.031799,809.157227 264.941528,782.553528 
	C259.335907,767.773865 254.319748,752.768860 247.691025,738.379150 
	C243.247253,728.732483 245.704102,720.207947 252.811020,712.783813 
	C261.443024,703.766541 270.872894,695.501343 278.285156,685.341187 
	C287.615753,672.551453 294.521454,658.640869 298.205139,643.189697 
	C298.641174,641.360657 299.188171,639.361694 297.712555,637.997620 
	C295.982391,636.398254 294.139130,637.900085 292.743073,638.877747 
	C267.896240,656.279114 239.777176,666.890076 211.585999,676.980286 
	C180.736450,688.021851 160.266251,709.413269 146.184799,737.964783 
	C135.859772,758.899780 127.276077,780.561584 120.484238,802.890503 
	C118.468666,809.516907 114.909744,814.521667 108.974396,817.896240 
	C98.863525,823.644775 90.303848,831.285522 82.510002,839.798523 
	C76.356148,846.520203 68.051277,848.377014 59.780109,850.238220 
	C52.986881,851.766846 46.077660,852.774170 39.233505,854.083862 
	C30.714729,855.714050 26.653070,851.895142 27.868099,843.549438 
	C29.889822,829.662842 35.237118,817.437866 44.986008,807.151367 
	C50.500027,801.333191 59.531101,798.494690 66.719055,800.824402 
	C68.217651,801.310181 68.567757,802.613831 69.276604,803.695618 
	C71.639198,807.301270 74.135864,807.683533 77.448860,804.946960 
	C79.452042,803.292297 81.082581,801.079651 81.305748,798.675110 
	C82.166878,789.397217 87.022240,782.109375 92.513718,775.159058 
	C99.844292,765.881226 104.490097,755.169128 109.085175,744.474365 
	C118.213066,723.229614 127.221588,701.916992 132.927826,679.414368 
	C133.534912,677.020325 133.606033,674.491638 133.943222,672.027771 
	C135.426224,661.191772 142.638428,656.342041 152.234833,652.593445 
	C181.834534,641.030884 200.929703,619.177490 210.911499,589.331055 
	C214.567688,578.398743 212.557724,566.878540 212.661865,555.119141 
M458.698151,511.255402 
	C460.006622,508.017883 461.239349,504.747070 462.643799,501.551758 
	C464.199829,498.011536 465.421448,494.521240 464.637207,490.502411 
	C461.943909,476.700958 464.173126,463.429138 469.262482,450.506653 
	C471.315460,445.293915 473.364075,440.079529 475.336975,435.063477 
	C474.300446,433.682495 473.159058,433.487305 472.000214,433.282806 
	C464.659210,431.987244 457.320160,430.680420 449.982178,429.367737 
	C438.503540,427.314270 427.059387,425.115143 417.495270,417.764099 
	C415.636810,416.335663 414.224518,416.988708 412.506317,417.857513 
	C404.872406,421.717407 398.888245,427.297150 394.522064,434.648621 
	C382.729553,454.503998 376.733063,476.394318 371.980713,498.724121 
	C370.640778,505.020172 371.512817,506.769318 377.322968,509.072754 
	C379.012329,509.742493 380.775024,510.255035 382.538147,510.706757 
	C404.045044,516.217163 426.054657,517.518738 448.097717,518.750732 
	C453.664459,519.061890 457.004761,517.314758 458.698151,511.255402 
M456.801697,301.793121 
	C454.237274,300.242523 451.678558,298.682404 449.107422,297.142975 
	C438.563385,290.829895 437.361267,291.100098 430.297455,301.384888 
	C429.544128,302.481781 428.791870,303.586548 428.138184,304.743591 
	C422.448578,314.813599 420.133514,325.021515 426.073090,335.967316 
	C431.016449,345.077240 438.487762,351.497406 447.036896,356.883728 
	C466.357178,369.056305 487.107971,378.674377 506.749329,390.272552 
	C508.883881,391.533020 510.743927,391.014801 512.910767,390.541931 
	C516.759949,389.701874 520.685730,387.198120 525.193237,390.471161 
	C522.056763,394.776794 518.427551,398.468536 515.926086,402.963135 
	C513.986755,406.447723 514.064026,408.670410 518.567200,409.766174 
	C527.606384,411.965729 535.792175,415.871399 542.378845,422.689209 
	C543.131897,423.468628 544.038940,424.417572 545.943054,423.705719 
	C549.728455,416.012543 553.650391,407.934448 555.468567,399.083893 
	C556.358459,394.752228 555.742249,390.257233 552.890442,386.705078 
	C545.809326,377.884857 540.014893,368.030273 531.921082,360.039185 
	C510.819427,339.205170 485.983490,324.488983 457.841217,315.274841 
	C456.613800,314.872955 455.236664,314.701630 454.561035,313.082123 
	C459.993805,309.203522 466.177185,313.912384 472.623260,311.716919 
	C467.790466,307.135437 462.296722,305.127258 456.801697,301.793121 
M699.748291,386.015106 
	C699.110046,385.828674 698.480713,385.600006 697.832153,385.462097 
	C684.974121,382.728790 672.317383,379.296387 660.115540,374.356598 
	C658.090759,373.536896 655.295959,373.141571 655.437378,369.988464 
	C655.645264,365.355255 655.894653,360.711456 657.445679,356.272797 
	C657.528748,356.035187 657.968811,355.922333 658.493164,355.595001 
	C659.423950,356.226440 660.447021,356.920502 661.538879,357.661163 
	C663.629150,349.935211 656.046021,341.233948 648.289795,342.588257 
	C641.740784,343.731812 635.109985,344.287598 628.605713,345.500610 
	C622.349976,346.667267 624.783447,353.521210 622.139771,357.221954 
	C621.158142,358.596100 620.005249,360.429871 621.888000,362.165833 
	C622.132507,362.391266 622.382568,362.611511 622.639709,362.822327 
	C628.783752,367.860321 635.460266,371.777527 643.553040,372.662170 
	C644.878296,372.807037 646.230164,372.742737 647.168884,373.959503 
	C650.073303,377.724060 654.417847,379.205841 658.568420,380.828583 
	C695.804504,395.386749 734.790283,401.472565 774.415405,403.463867 
	C799.841370,404.741577 825.356812,404.605865 850.785034,402.560913 
	C855.192566,402.206482 859.862793,402.353333 864.843323,399.944183 
	C859.698303,397.125275 855.049500,396.138763 850.315247,395.344330 
	C844.074463,394.297058 837.914917,392.953400 832.432556,389.533875 
	C825.842529,385.423553 824.885498,385.468750 818.699036,390.132111 
	C816.561768,391.743164 814.403748,393.441132 813.146301,395.807373 
	C811.586609,398.742615 809.341736,399.591156 806.193665,399.370483 
	C793.601807,398.487854 781.007996,397.740356 768.433289,396.520294 
	C745.611450,394.305969 723.002441,390.854034 699.748291,386.015106 
M559.407043,502.861938 
	C562.233032,498.293457 564.027161,493.272827 565.575500,488.184418 
	C572.023682,466.994263 575.125916,445.150757 577.432373,423.224976 
	C578.016541,417.672607 579.772400,411.874481 577.919189,405.908722 
	C575.606262,407.624390 575.179260,410.016357 574.422913,412.142853 
	C565.140320,438.240692 552.891907,462.599518 533.358093,482.730103 
	C532.425476,483.691132 531.579407,484.753662 531.459473,486.158447 
	C530.753784,494.421997 530.048584,502.685699 529.393677,510.953369 
	C529.224670,513.087402 530.084595,514.509888 532.460999,514.570740 
	C542.971619,514.839783 552.843140,513.583008 559.407043,502.861938 
M519.743408,319.772797 
	C522.968811,330.555939 529.431458,338.994934 538.484375,345.526062 
	C541.991882,348.056458 545.612793,350.429382 549.130737,352.945709 
	C560.781738,361.279663 572.442139,369.577545 580.864746,381.538208 
	C583.929810,385.890808 585.991943,390.801605 588.922913,395.600342 
	C601.300476,391.206909 612.989990,386.028290 625.013916,379.025909 
	C619.370911,374.646851 614.572144,370.861633 609.683838,367.195801 
	C608.953857,366.648407 607.816650,366.570343 606.845398,366.429260 
	C584.195190,363.139557 563.065796,355.448181 543.309998,344.042694 
	C532.745544,337.943604 525.487976,329.215210 523.808899,316.615051 
	C522.206848,304.592560 521.389404,292.506012 520.663025,280.410919 
	C519.828247,266.512543 519.070312,252.610550 520.001221,238.682236 
	C512.024963,265.399597 513.059143,292.185883 519.743408,319.772797 
M643.628967,223.821350 
	C646.554810,227.620636 650.373230,230.238464 654.776367,231.983826 
	C658.049377,233.281219 660.361511,232.387589 662.132568,229.060150 
	C664.679749,224.274292 666.263733,219.659286 662.199524,214.638718 
	C665.532959,212.896576 668.258362,211.472183 670.955261,210.062683 
	C670.751709,207.855469 668.670471,206.212509 670.412231,203.753983 
	C673.557983,204.451477 676.947449,205.215439 680.530029,203.885483 
	C679.253174,198.837265 678.044983,194.060471 676.779297,189.056442 
	C668.028931,190.114655 660.281189,188.777267 654.603577,181.550629 
	C653.721497,180.427841 652.481201,180.837601 651.368347,181.224869 
	C648.121155,182.354889 645.390198,184.095215 643.933777,187.414673 
	C641.788696,192.303970 640.273254,197.359848 639.111206,202.583679 
	C637.426086,210.158813 637.975281,217.114029 643.628967,223.821350 
M746.559509,295.092896 
	C722.349976,314.080444 700.701599,335.510864 681.896240,361.163361 
	C684.770813,361.250488 685.730896,360.572845 686.645020,359.853638 
	C695.672546,352.750916 704.527832,345.453064 712.682983,337.335693 
	C737.633362,312.500977 763.543152,288.851105 794.437012,271.374786 
	C795.161194,270.965179 796.413147,270.579346 795.509277,268.574371 
	C777.979736,274.684357 762.031433,283.673767 746.559509,295.092896 
M507.335388,554.140808 
	C505.364838,552.511963 505.349335,550.317749 505.964722,548.198303 
	C506.796417,545.333862 508.198853,542.625244 508.918427,539.740479 
	C510.088226,535.050781 512.472046,534.120483 516.883545,535.926331 
	C521.170288,537.681030 525.739197,538.746338 530.184265,540.114380 
	C526.066223,533.393555 518.160156,534.339233 512.774414,530.244568 
	C514.544739,524.158325 516.334229,518.300720 517.948242,512.395142 
	C521.132507,500.743835 521.514954,497.284363 520.076843,494.506805 
	C517.760376,497.288879 517.041077,500.800110 515.403198,503.837494 
	C510.940643,512.113159 508.028412,521.111206 504.026337,529.605957 
	C501.649780,534.650330 500.129974,541.227539 499.119751,547.370667 
	C498.020813,554.053650 499.445892,557.488037 505.926239,559.452820 
	C513.802734,561.840759 521.964783,562.051208 530.106934,561.425354 
	C531.815857,561.293884 533.882935,560.988342 535.438538,559.537048 
	C533.095886,557.633179 530.627808,557.613220 528.128906,557.326294 
	C521.410950,556.555115 514.482178,557.291565 507.335388,554.140808 
M589.179932,305.973419 
	C588.945496,301.995209 588.963135,297.981476 588.409424,294.048218 
	C587.792725,289.667053 585.979309,288.922821 582.292114,291.292114 
	C576.735779,294.862396 572.242310,299.385468 569.505676,305.572968 
	C568.059631,308.842560 568.658386,311.089905 571.393372,313.364471 
	C580.312561,320.782257 590.314331,326.317871 600.956177,330.750305 
	C604.933411,332.406921 608.889771,334.422943 614.315918,334.113007 
	C609.692383,331.424805 605.823242,329.209503 601.987610,326.937775 
	C594.342285,322.409668 589.498291,316.105438 589.179932,305.973419 
M650.439270,445.044220 
	C671.786682,465.616333 696.873230,481.415344 719.912109,499.834991 
	C700.908203,470.902924 670.033752,456.426636 643.798096,436.231964 
	C644.619324,440.121216 647.513672,442.138336 650.439270,445.044220 
M576.921387,220.645432 
	C571.322510,213.357971 566.849731,210.456497 561.977783,211.129944 
	C562.705688,211.966766 563.293945,212.771454 564.007385,213.443130 
	C570.581787,219.632675 573.358582,227.310059 573.458313,236.248581 
	C573.594116,248.421524 572.222290,260.449097 570.644409,272.479736 
	C570.127258,276.422668 570.004395,280.417297 569.654968,284.993652 
	C571.818542,283.532440 572.353699,282.129456 572.850708,280.717316 
	C576.389648,270.662506 578.904663,260.336395 580.569580,249.827103 
	C582.119019,240.047363 582.918762,230.259735 576.921387,220.645432 
M822.068054,308.515015 
	C818.522278,316.594452 815.734985,324.948517 813.898132,333.557831 
	C811.395813,345.285797 809.594360,357.096558 814.300293,368.770569 
	C814.973633,370.441040 815.150085,372.691681 818.588135,372.947601 
	C813.900574,347.188416 824.862244,323.860077 828.662659,298.687622 
	C825.037048,301.464783 823.711853,304.657562 822.068054,308.515015 
M665.241760,143.473511 
	C666.584167,147.052902 667.896484,150.643936 669.277710,154.208298 
	C670.561523,157.521072 674.561401,158.859711 678.916260,157.326279 
	C683.013184,155.883652 680.957336,152.880997 680.091858,150.719360 
	C675.629883,139.575180 667.044556,132.497787 656.443176,127.562996 
	C655.555542,127.149826 654.476196,126.923744 653.679443,128.720093 
	C657.527161,133.117462 662.138672,137.264542 665.241760,143.473511 
M485.469208,468.805817 
	C484.632385,472.372650 483.025238,475.832733 484.593719,479.907471 
	C493.807678,457.969269 503.021637,436.031036 512.235596,414.092804 
	C511.709686,413.858459 511.183716,413.624084 510.657776,413.389709 
	C498.929657,429.995209 491.992157,448.872345 485.469208,468.805817 
M633.528931,392.344788 
	C631.710632,394.280762 629.730896,396.090393 628.100220,398.173309 
	C617.883911,411.222931 606.024841,422.552673 592.674011,432.343262 
	C589.485596,434.681458 586.283691,437.001434 583.088013,439.329803 
	C586.403931,439.093506 589.129272,437.984589 591.749939,436.459808 
	C604.721985,428.912323 615.505127,418.874390 624.922241,407.325653 
	C628.629211,402.779633 632.890503,398.472260 633.528931,392.344788 
M902.655823,406.973694 
	C898.973145,410.324585 895.282593,409.719757 891.299744,407.347107 
	C887.317932,404.975159 886.137207,400.893677 884.381653,396.186829 
	C883.679810,406.287933 889.547363,411.323883 895.624878,413.146515 
	C900.656189,414.655396 908.193115,411.004639 911.261047,405.671570 
	C913.470154,401.831421 913.231628,398.032654 910.713928,394.430756 
	C908.286316,390.957794 904.132690,389.290649 899.989685,390.181671 
	C904.817322,394.922150 907.808838,400.001038 902.655823,406.973694 
M614.360657,188.080444 
	C614.914490,190.876862 616.013123,193.436417 617.804749,195.659393 
	C619.416443,197.659042 621.298645,197.938354 622.463013,195.460159 
	C625.078674,189.893005 625.771973,183.998901 623.467773,178.197739 
	C622.462769,175.667465 620.082642,173.968658 617.062988,174.633698 
	C614.388855,175.222656 613.707703,177.565186 613.404114,179.949966 
	C613.085571,182.452362 613.614624,184.874512 614.360657,188.080444 
M609.843018,230.333633 
	C611.917603,225.992844 611.666809,221.843582 609.451050,217.516556 
	C606.956543,212.645203 604.962402,207.519424 602.682312,202.535568 
	C601.833679,200.680771 601.351868,198.534439 598.909973,197.487671 
	C602.527649,210.643127 605.105896,223.912689 605.316711,238.332199 
	C607.892090,235.708588 608.506653,233.245041 609.843018,230.333633 
M940.497070,409.628906 
	C942.774902,416.179993 948.768372,413.896606 953.282227,415.197479 
	C948.934998,412.952209 943.889709,411.762207 943.591736,405.322235 
	C943.125183,395.239838 949.614563,393.003632 958.919983,393.016174 
	C954.540771,388.984833 950.822510,388.905304 946.845825,390.112823 
	C943.221985,391.213196 941.714722,393.694824 941.154175,397.418243 
	C940.581421,401.223297 940.232178,404.983185 940.497070,409.628906 
M889.493103,313.004547 
	C890.961060,314.641449 891.312561,317.169312 893.584717,318.551849 
	C893.968994,308.910919 892.281860,304.990662 887.139099,303.137543 
	C881.314026,301.038635 875.644714,302.097046 872.759521,306.094910 
	C878.279053,308.158020 884.931030,307.238800 889.493103,313.004547 
M731.473877,591.570740 
	C734.268616,591.341003 735.338989,589.342712 736.140015,587.047302 
	C738.701050,579.707947 738.244812,567.700623 734.883423,562.850037 
	C733.246704,572.324463 732.287476,581.521912 729.326233,590.289734 
	C728.923584,591.481873 730.110229,591.463440 731.473877,591.570740 
M548.093201,634.161377 
	C545.693970,623.208496 541.186157,613.049133 537.010010,602.747864 
	C535.487488,606.045837 536.826233,608.856873 537.457947,611.677429 
	C539.095154,618.987061 541.478638,626.079102 545.023315,632.708801 
	C545.580322,633.750549 545.709900,636.217163 548.093201,634.161377 
M664.520020,168.376770 
	C652.459106,167.587570 640.398254,166.798355 628.337341,166.009140 
	C628.302612,166.483932 628.267944,166.958710 628.233215,167.433502 
	C643.864624,167.859146 659.228333,171.567429 674.963623,170.772293 
	C672.038330,168.463409 668.765381,168.228699 664.520020,168.376770 
M468.838257,555.364990 
	C466.416656,555.499512 463.897278,555.074524 460.607605,557.222900 
	C469.309692,559.715881 477.098846,558.629395 484.917206,557.726562 
	C480.344513,553.668335 474.798187,556.132385 468.838257,555.364990 
M762.438171,443.702362 
	C758.882935,450.545898 756.875427,457.666351 758.236450,465.401093 
	C761.959778,458.891815 762.691650,451.575073 764.437500,444.550995 
	C764.637512,443.746307 764.027405,442.947845 762.438171,443.702362 
M791.881531,362.111023 
	C791.793823,361.213623 791.508972,359.477173 790.527588,360.797668 
	C788.809509,363.109436 787.031799,365.772827 787.854492,369.654144 
	C790.638245,367.757507 791.230652,365.276398 791.881531,362.111023 
M880.886963,846.003235 
	C884.470337,846.893921 888.068542,847.330261 892.568237,846.540100 
	C887.149353,845.125427 882.520142,844.733215 877.802734,845.342896 
	C878.599915,845.500122 879.397156,845.657410 880.886963,846.003235 
z"/>
<path fill="#000000" opacity="1.000000" stroke="none" 
	d="
M595.637512,813.646851 
	C584.257080,824.919556 573.695129,836.488281 563.619629,848.462097 
	C557.900757,855.258545 550.876831,858.898804 542.361572,860.224060 
	C535.719849,861.257690 529.201721,863.069519 523.610901,866.679382 
	C512.086853,874.120483 499.155579,874.585632 486.204498,875.267700 
	C482.050690,875.486450 477.877930,875.363708 473.713837,875.366028 
	C466.383942,875.370056 464.350342,872.648926 466.125732,865.394653 
	C467.982849,857.806519 471.532959,851.081604 476.569855,845.174805 
	C483.231812,837.362183 491.047760,831.466064 501.815704,830.767395 
	C505.035553,830.558533 508.430725,829.849426 508.824371,835.006226 
	C511.292450,833.715027 512.020142,830.428650 515.038330,830.949707 
	C517.581238,831.388733 518.756409,833.621521 520.490784,835.115540 
	C525.050598,839.043457 530.748230,837.716431 533.021362,832.119690 
	C533.643494,830.587952 534.160461,828.982300 534.473816,827.361877 
	C535.619385,821.437805 539.161194,817.658752 544.606201,815.319092 
	C561.193054,808.191956 573.891235,795.913513 586.540466,783.559631 
	C591.245300,778.964661 593.040527,773.180786 593.501953,766.944214 
	C593.925537,761.218750 595.969238,756.110535 599.472778,751.860046 
	C605.143799,744.979858 607.955383,736.924500 610.712097,728.686401 
	C617.944336,707.073792 625.821960,685.695007 634.848633,664.756409 
	C635.485657,663.278748 635.759277,661.496033 637.760803,660.546448 
	C653.874695,672.472656 674.297729,672.353760 692.294495,679.360840 
	C693.834412,679.960449 695.502441,680.222900 697.157959,681.759094 
	C693.292664,686.435730 689.395996,691.125061 685.526306,695.836548 
	C667.274902,718.058228 651.641541,741.986328 638.923401,767.783203 
	C632.841919,780.118408 624.835022,790.687256 613.072510,798.199829 
	C606.576233,802.348938 601.417358,808.106140 595.637512,813.646851 
z"/>
<path fill="#000000" opacity="1.000000" stroke="none" 
	d="
M882.090942,255.832230 
	C886.214905,258.846741 889.984802,261.711121 892.980408,266.915283 
	C872.630432,269.552673 854.245544,275.350159 836.372986,284.779144 
	C831.914551,272.874603 826.736511,262.017365 823.213135,250.406799 
	C819.435486,237.958389 819.994751,225.832016 823.990234,213.725586 
	C825.193665,210.079102 826.150879,205.851349 831.674988,204.759613 
	C838.822327,218.942490 846.009827,233.205078 853.343628,247.758072 
	C854.441406,245.806732 853.562012,244.354202 853.538574,242.902664 
	C853.468567,238.552582 853.761841,234.588928 856.761169,230.786682 
	C860.925293,225.507812 861.943542,218.614899 864.472778,212.480713 
	C865.214722,210.681320 865.482544,208.212204 867.863220,208.015640 
	C870.396667,207.806458 871.543884,210.038467 872.447998,211.999969 
	C877.077026,222.043365 878.992859,232.569916 876.887390,243.493500 
	C875.346313,251.488876 875.055542,251.432831 882.090942,255.832230 
z"/>
</svg>