<?xml version="1.0" standalone="no"?>
<!DOCTYPE svg PUBLIC "-//W3C//DTD SVG 20010904//EN"
 "http://www.w3.org/TR/2001/REC-SVG-20010904/DTD/svg10.dtd">
<svg version="1.0" xmlns="http://www.w3.org/2000/svg"
 width="398.000000pt" height="150.000000pt" viewBox="0 0 398.000000 150.000000"
 preserveAspectRatio="xMidYMid meet">

<g transform="translate(0.000000,150.000000) scale(0.100000,-0.100000)"
fill="#1c398e" stroke="none">
<path d="M1181 1487 c-14 -7 -28 -25 -33 -42 -7 -31 -8 -31 -75 -31 -116 -1
-251 -70 -292 -151 -6 -12 -11 -40 -11 -63 0 -51 26 -79 95 -105 117 -43 117
-43 106 -64 -15 -27 -37 -32 -101 -22 -30 4 -102 7 -160 5 -111 -3 -171 -19
-225 -59 -16 -12 -48 -25 -70 -29 -87 -16 -123 -40 -224 -149 -50 -55 -85 -75
-144 -85 l-42 -7 38 -24 c29 -18 48 -22 78 -18 21 3 39 3 39 1 0 -11 -72 -34
-107 -34 l-38 -1 30 -16 c40 -22 130 -21 175 1 19 10 45 30 57 44 16 18 23 22
23 12 0 -22 -29 -60 -54 -71 -17 -8 -16 -8 9 -3 63 12 105 75 105 157 0 47 12
77 31 77 3 0 9 -21 13 -46 9 -67 39 -113 111 -168 128 -96 155 -133 155 -211
0 -60 1 -62 93 -109 36 -19 91 -52 123 -73 31 -21 69 -45 83 -53 33 -19 50
-40 51 -62 0 -27 18 -31 80 -18 55 12 58 13 42 30 -9 9 -42 33 -72 54 -30 20
-84 58 -120 85 -36 28 -84 63 -108 78 -23 15 -45 37 -47 48 -6 30 -13 326 -7
320 3 -3 8 -21 11 -42 l6 -36 110 -37 c61 -21 137 -41 171 -45 55 -6 65 -11
103 -50 23 -23 66 -55 95 -70 60 -30 74 -56 50 -92 -31 -48 -156 -73 -169 -34
-4 13 -22 23 -55 31 -56 14 -84 5 -54 -17 10 -8 26 -28 34 -45 12 -25 27 -35
75 -50 33 -10 69 -17 80 -14 26 7 153 83 183 109 33 30 27 60 -23 117 -46 51
-76 98 -56 86 6 -4 63 -11 128 -17 137 -11 147 -17 195 -119 17 -36 38 -79 46
-97 13 -27 14 -36 3 -56 -21 -39 -10 -69 34 -94 22 -12 44 -23 48 -23 11 0 4
81 -13 145 -7 28 -38 105 -69 172 -52 114 -59 123 -96 139 -22 9 -67 29 -100
45 l-60 28 1 98 c2 92 5 104 42 184 22 48 44 89 48 91 5 3 53 -2 106 -11 72
-12 103 -22 121 -39 23 -22 28 -23 68 -11 76 21 83 50 29 119 -15 19 -50 73
-78 120 -28 47 -65 98 -81 114 -17 17 -31 35 -31 41 0 6 -7 20 -15 31 -15 18
-16 17 -9 -16 l7 -35 -51 48 c-65 60 -91 65 -55 10 17 -26 17 -26 -4 -14 -31
16 -35 14 -23 -10 7 -11 9 -23 6 -26 -4 -5 -47 8 -111 33 -16 6 -15 3 5 -15
l25 -22 -40 6 c-35 5 -38 4 -22 -8 26 -22 21 -27 -27 -27 -49 0 -69 -15 -36
-25 17 -5 19 -10 9 -21 -6 -8 -15 -14 -20 -14 -4 0 -20 -5 -36 -12 -28 -12
-27 -12 21 -18 48 -5 49 -6 32 -23 -15 -15 -32 -17 -99 -15 l-81 3 -12 55 c-7
30 -13 60 -14 66 0 16 47 27 68 15 19 -11 74 13 71 32 -3 26 2 34 27 46 l27
12 -20 22 c-12 12 -23 31 -27 42 -6 19 -53 55 -73 55 -4 0 -19 -6 -32 -13z
m-116 -332 c21 -54 34 -65 88 -79 l43 -11 -59 -27 -59 -28 6 26 c9 34 -11 63
-69 105 -51 37 -55 46 -22 52 51 10 55 7 72 -38z m581 -122 c-6 -6 -56 8 -56
16 0 17 14 19 36 4 14 -9 23 -18 20 -20z"/>
<path d="M2605 1306 c-73 -33 -95 -88 -95 -240 0 -96 3 -118 23 -156 31 -61
65 -83 134 -87 76 -5 120 18 151 77 19 39 22 59 22 166 0 152 -17 202 -79 234
-46 23 -112 26 -156 6z m119 -81 c26 -27 39 -95 33 -184 -6 -94 -26 -134 -70
-139 -67 -8 -91 48 -85 200 3 77 8 101 22 117 23 25 78 28 100 6z"/>
<path d="M3324 1306 c-43 -19 -68 -75 -59 -132 7 -47 36 -83 129 -157 43 -35
47 -42 44 -75 -3 -35 -5 -37 -40 -40 -31 -3 -39 1 -54 27 -15 26 -25 31 -56
31 -32 0 -38 -3 -38 -20 0 -86 121 -145 214 -106 48 20 66 51 66 115 0 68 -22
105 -95 160 -69 52 -90 83 -76 109 6 11 16 22 23 25 17 6 58 -10 58 -23 0 -5
20 -10 45 -10 51 0 57 12 24 54 -42 54 -118 71 -185 42z"/>
<path d="M2130 1070 l0 -240 45 0 45 0 0 105 0 105 65 0 65 0 0 -105 0 -105
45 0 45 0 0 240 0 240 -45 0 -45 0 0 -100 0 -100 -65 0 -65 0 0 100 0 100 -45
0 -45 0 0 -240z"/>
<path d="M2920 1071 l0 -241 45 0 44 0 3 92 c2 60 7 93 15 95 11 4 42 -54 80
-149 15 -37 17 -38 64 -38 27 0 49 2 49 4 0 3 -20 45 -45 95 -25 50 -45 93
-45 97 0 3 11 15 24 25 36 28 53 113 35 169 -22 69 -52 84 -170 88 l-99 4 0
-241z m168 153 c17 -11 22 -25 22 -56 0 -52 -22 -78 -67 -78 l-33 0 0 68 c0
38 3 72 7 75 11 12 48 7 71 -9z"/>
<path d="M3602 1073 l3 -238 118 -3 117 -3 0 35 0 35 -72 3 -73 3 -3 68 -3 67
61 0 60 0 0 35 0 34 -57 3 -58 3 0 60 0 60 73 3 72 3 0 34 0 35 -120 0 -120 0
2 -237z"/>
<path d="M2900 700 c-74 -18 -104 -90 -103 -245 0 -172 47 -245 155 -245 79 0
125 34 142 104 8 34 -4 46 -49 46 -26 0 -32 -5 -40 -32 -16 -54 -85 -51 -104
3 -15 42 -14 234 0 262 27 50 73 51 96 2 15 -31 21 -35 55 -35 44 0 49 16 24
75 -23 54 -102 83 -176 65z"/>
<path d="M3775 699 c-72 -23 -96 -69 -103 -199 -6 -133 10 -204 58 -252 35
-35 42 -38 97 -38 102 0 142 49 151 187 l5 84 -84 -3 -84 -3 0 -30 c0 -27 3
-30 38 -33 36 -3 37 -5 37 -40 0 -54 -24 -84 -63 -80 -50 5 -62 41 -62 179 0
101 3 120 19 138 33 37 80 22 99 -31 9 -25 87 -26 87 -1 0 87 -104 152 -195
122z"/>
<path d="M2130 460 l0 -240 45 0 45 0 0 86 c0 75 2 85 17 82 10 -2 31 -35 52
-85 l36 -83 48 0 c26 0 47 2 47 5 0 3 -20 45 -45 94 l-44 89 20 18 c39 35 51
73 47 140 -6 102 -51 134 -188 134 l-80 0 0 -240z m161 151 c19 -15 23 -28 23
-62 -2 -48 -29 -79 -70 -79 -23 0 -24 2 -24 80 0 78 1 80 24 80 13 0 34 -9 47
-19z"/>
<path d="M2506 493 c-26 -114 -52 -223 -56 -240 l-8 -33 48 0 49 0 7 45 6 45
54 0 c57 0 56 1 66 -65 3 -16 12 -21 51 -23 45 -3 47 -2 42 20 -3 13 -27 120
-54 238 l-48 215 -54 3 -55 3 -48 -208z m113 6 c5 -30 12 -66 16 -81 7 -26 5
-28 -27 -28 l-34 0 15 85 c8 47 16 83 18 81 2 -2 8 -28 12 -57z"/>
<path d="M3150 460 l0 -240 45 0 45 0 0 240 0 240 -45 0 -45 0 0 -240z"/>
<path d="M3310 461 l0 -241 45 0 44 0 3 137 3 138 61 -135 61 -135 41 -3 42
-3 0 240 0 241 -45 0 -45 0 -1 -132 -1 -133 -54 115 c-30 63 -58 122 -63 130
-4 9 -26 16 -50 18 l-41 3 0 -240z"/>
<path d="M587 428 c-16 -60 -16 -64 2 -88 10 -14 37 -36 62 -49 24 -14 83 -64
132 -111 82 -80 89 -90 83 -117 -6 -24 -3 -31 16 -40 13 -7 38 -13 56 -16 45
-5 42 14 -17 104 -61 93 -78 109 -177 162 l-79 42 -8 60 c-8 59 -27 107 -44
112 -5 2 -16 -25 -26 -59z"/>
</g>
</svg>
